<svg xmlns="http://www.w3.org/2000/svg" viewBox="0 0 400 500" width="400" height="500"><path fill="#EAE2D4" d="M0 0h400v500H0z"/><g transform="rotate(2 200 250)"><g fill="none" stroke="#1C1A17" stroke-width="2.4" stroke-linecap="round" stroke-linejoin="round"><path d="M83 232q1-14 3-20 2-7 5-13 3-7 7-12 5-5 10-9 6-4 13-7 6-3 13-5 6-2 13-3 7-1 14 0 7 0 14 1 6 2 13 4 7 2 13 5 6 3 12 8 5 5 9 11 4 6 6 12 3 7 5 13 2 7 3 14 1 7 0 14 0 6-1 13-2 7-4 13-3 7-6 13-4 6-9 11-4 5-10 9-6 4-12 7-7 3-13 5-7 2-14 3-7 1-13 1-7-1-14-2-7-2-13-4-7-3-12-7-6-4-11-9-4-5-8-11-4-6-7-12-3-7-5-21M21 251q2 14 6 19 5 6 11 9 7 3 13 5 7 2 14 3 7 1 14 1 6 0 13 0 7 0 14 1 7 0 14 0 7 0 14-1 6-1 13-2 7 0 14-1 7-1 13-3 7-1 14-3 7-1 13-3 7-1 14-4 6-2 13-5 6-3 12-7 5-3 11-7 6-3 12-7 6-4 11-8 5-5 10-10 4-5 7-11 4-6 4-13 1-7-4-19M21 251q4-11 8-16 4-5 9-8 5-4 11-7 5-3 11-5 6-3 17-7M291 185q-8-7-13-10-4-3-10-4-5-2-10-3-6-1-11-1-6-1-17-1M19 354q13 0 20 0 7 0 14 0 7 0 14 0 7 1 14 1 7 0 14 1 6 0 13 0 7 0 14 1 7 0 14 1 7 0 14 0 7 0 20 0M167 355q14 0 21 1 7 0 15 0 7 0 14 0 7 0 14 0 8-1 15-1 7-1 14-1 7-1 15-2 7-1 14-2 7-1 14-3 7-2 12-6 5-4 7-10 2-7 0-21M111 357q14 0 21 1 7 1 14 1 7 1 14 1 8-1 15-1 7 0 14-1 7 0 14 0 7 0 14 0 7 0 14-1 7-1 15-1 7 0 14-2 7-1 14-2 7-1 14-2 7-1 13-2 7-1 19-8M19 352q-8-11-2-15 6-4 14-5 7-1 14-3 7-1 15-3 7-1 20-7M322 310q-2-6-3-10-1-3-3-6-2-3-3-6-2-3-4-6-3-3-8-7M298 276q1-14 3-20 1-7 1-14 1-6 2-13 2-7 3-13 1-7 4-20M316 284q6-12 9-18 3-5 7-11 4-5 8-10 4-6 8-11 4-5 13-15M299.9 317.9q2.3 1.7 3.6 2.1 1.3 .5 2.7 .7 1.4 .1 2.8 0 1.4-.1 2.7-.6 1.4-.5 3.6-2.1M302 186q5-10 10-11 6 0 9 4 3 5 0 10-3 4-9 4-6 0-11-10M355 210q6-10 12-10 6 0 8 5 2 5-1 9-3 4-9 3-5-1-9-12M96 101q0 13 5 17 5 4 1 4-4 0-8 5-4 5-4 5-1 0-4-6-4-5-7-7-2-2 4-4 7-2 14-13M130.3 379.5q3.8-3.8 8.2-6.9M145.7 380.5q5.9-4 10.8-9.1M160.3 380.3q5.9-5.9 12.8-10.7M175.1 379.7q6.4-6.1 13.5-11.3M189.7 380.6q6.5-4.8 12.4-10.4M205.1 379.3q5-4.2 10-8.4M219.4 379.9q3.9-3.4 7.9-6.7"/></g><path fill="#1C1A17" d="M309.9 186C310.4 178.3 322.3 178.8 321.8 186.5C321.7 193.7 309.6 193.1 309.9 186.3ZM364.4 211.1C364.8 203.1 376.3 203.5 376.2 211C375.9 218.5 363.9 217.9 364.5 210.8Z"/><path fill="#F4EFE6" d="M311.6 183.6C311.9 181.2 315.9 181.1 315.9 184C315.7 186.2 311.6 186.3 311.9 183.6ZM366.2 208.5C366.3 205.8 370.1 205.8 370 208.4C370.4 211.1 366.2 211.2 366.2 208.6Z"/></g></svg>