<svg xmlns="http://www.w3.org/2000/svg" viewBox="0 0 400 462"><path fill="none" stroke="currentColor" stroke-linecap="round" stroke-linejoin="round" stroke-width="2.6" d="M100 12q-14 2-21 4t-12 6q-6 4-11 10-5 5-8 11-3 7-5 14-2 6-4 13t-3 14-3 14l-2 14-4 14q-1 7-3 14-1 6-6 20M84 15q-14 5-19 9-6 4-10 10-5 5-8 11-4 6-7 13l-4 14q-1 7-3 13-1 7-3 14l-4 14q-2 7-5 21m79-121q14 2 20 6 6 3 11 9 5 5 8 12 3 6 5 13l4 14 2 14q1 8 1 15v14q0 7-1 15-1 7-4 21M85 21q-7 12-9 18-3 6-5 12-2 7-3 13-2 6-4 13-1 6-3 12l-2 13q-1 7-2 20m65-100q6 12 8 19 3 6 5 13t3 14 1 14v13q0 7-1 14 0 7-1 21M63 62q-1 14-1 22 0 7 1 14t3 14l6 14q3 6 9 11 5 5 11 8 7 2 14 1 7-2 13-6 5-4 8-10 3-7 5-14t3-14 1-14q-1-8-2-22m-58.2-3.6q3.2 1.6 4.9 2.1t3.5.7 3.6 0 3.5-.7q1.7-.6 4.8-2.3m10.1-2.6q3.1 1.6 4.8 2.1t3.4.6q1.8.2 3.5-.1 1.7-.2 3.4-.8t4.6-2.5m-24.7 11.2-1.3 3.3q-.3 1.2-.3 2.3-.1 1.2.3 2.3t1.2 2 2.9 2.1M90.1 95.8q3.2 1.2 4.9 1.6t3.4.5 3.5-.1 3.4-.7 4.7-2M80 149q-8 3-12 4-5 1-9 3l-8 2q-5 1-9 3-4 1-12 4m94-20q8 3 12 4l8 2 8 2q4 2 8 3 4 2 12 4m-142 6q-1 13-2 20t-1 13q0 7-1 14v40q0 6 1 13 0 7 1 13 0 7 1 20m0-3q1 13 2 20 0 7 1 14v14q1 7 1 13l2 14q0 7 1 14 0 7 1 14l2 13q1 7 1 14t1 14q0 6 2 20M26 190v62q1 7 1 14v28q0 7 1 14 0 7 1 14 0 7 1 14 0 7 2 13l3 21m136-210q2 15 2 22 1 7 1 15 1 7 1 14v45q0 7 1 14 1 8 2 22m-1-3q0 14 1 22v14q1 7 0 14t-1 14v15q1 7 0 14 0 7-1 14v29l2 14 3 21M63 172q-1 14-2 22-1 7-1 14-1 7-1 14v51m-1-2q0 14 1 21 0 7 1 14v14q0 7 1 14v15q1 7 1 14t1 14l2 14q1 7 2 21m32-244v21q-1 7-1 14v14q1 7 1 14l2 14v55q1 7 1 14v28q1 7 0 14v14q-1 7-1 14v14q0 7 1 14 0 7 1 14t1 13l3 21m30-294q1 14 1 21v29q0 7 1 14v14q1 8 1 15v57q0 7 1 14v14l2 15 3 21M30 214q13-1 20-2 7 0 13-1 7-1 14-1 6 0 13-1 7 0 14-1 6 0 13-1l13-2 20-3m-90 62q15-3 22-4t14-1l15-2q7 0 14-1 8-1 15-1l14-2q8-1 22-2M34 319l20-3 13-2q7-1 14-1 6-1 13-1t14-1q6-1 13-1t13-1h34M44 372q15-2 22-2l15-2q7 0 14-1 8 0 15-1l15-2q7 0 14-1 8 0 15-1 7-2 22-3M40 420q14-2 21-2 7-1 13-1 7-1 14-1l14-2h14l13-2q7 0 21-2M213 0q-1 14-1 20-1 7-1 14v13l-2 14q-1 7-1 14-1 6-1 13t-1 14q0 6-1 20M238 0q-1 13-1 20v14q0 7 1 13 0 7 1 14l2 13q1 7 1 14 1 7 1 20M289 0q4 14 7 20l4 14q2 6 4 13 1 7 3 14 1 7 5 11 4 5 11 6h14q7 0 14-1 7 0 14-1h14q7 0 21-1m-194 47q-3 13-3 20t-1 14-1 14q0 6-1 13v14q-1 7-1 14t-1 13v28q0 7 1 13 0 7 1 14 2 7 3 14 0 6 2 13 1 7 3 13 1 7 4 13 2 7 10 18m-19-208q-2 13-2 20v14q-1 6-1 13v40q0 7-1 14 0 7-1 13-1 7 0 14 0 7 1 20m45-180q15-4 22-4 7-1 15 0 7 0 14 4 6 4 9 11t5 14 5 14q2 6 5 21m0-4q3 14 5 21 1 7 3 14l2 14q1 7 1 14l2 14q1 7 1 14t1 14l2 14q1 7 1 14 0 8-2 15-1 7-5 20m-26-219q13-3 20-4 7-2 13-3 7-2 14-3t14-1q7-1 14-1t11 5q5 5 1 10t-11 6q-6 1-20 0m15.6-20.5q3.2-2.8 5.1-3.9t3.9-1.7q2.1-.7 4.3-.8 2.2 0 4.3.7 2.2.7 5.3 3.6M310 150q10-3 15-4t10-3q4-2 9-3l10-4q4-2 13-7m-32 122q11 5 17 7 5 1 11 3 5 2 11 4 5 2 11 5 5 2 15 7M222 136q0 14-1 22-1 7-1 14v14q0 8 1 15t1 14q1 8 1 15 1 7 1 14t1 15q0 7 2 21m12-152q-1 15-1 22-1 7 0 15v14q0 8 1 15t2 22m1-2q1 15 1 22v14q0 8 1 15 0 7 2 14 1 7 3 15l6 20m6-194q0 14 1 21 0 6 1 13t1 14q1 7 1 13l2 14q0 7 1 14 0 6 1 13v14q1 7 1 14 0 6 1 20m14-146q1 14 1 20 1 7 1 14 1 7 1 14 1 6 1 13t1 14q0 7 1 14v13q1 7 1 14 1 7 1 14 0 6 1 13t3 14q2 6 3 13t4 20m3-164q1 13 2 20 0 7 1 13l2 14q0 6 1 13l2 14q1 6 1 13l2 13v14q1 7 1 20m-88-87q8 8 13 12 4 4 7 9 4 4 7 9 4 5 7 10 4 5 9 15m-15-83q7 10 10 15t5 11l6 10q2 6 5 11 2 5 7 16m-70 117q12-3 19-4t13-1l13 2q7 2 13 2 7 0 14-1l12-2q7-2 13-4 7-1 15 3m-113 6q-3 13-1 20 1 7 5 12 4 6 10 10 6 3 13 5 6 2 13 2 7 1 13 1h14q7 0 20-2m0 0q9-6 15-6 5-1 9 4 3 4 0 9t-9 5-14-8m25-58q4 7 6 11l2 8q1 4 0 8 0 4-1 8t-5 11m-73.5-17.3q3.1-2.4 4.9-3.2 1.8-.7 3.7-1t3.8-.2 3.8 1q1.8.7 5 3m-37.8-10.5q4.6-2.1 6.9-1.1 2.3 1.1 3 3.6.6 2.6-.8 4.8-1.5 2.1-4 2.6t-6.9-2m38 18.1q3.5 1.5 5.3 2.1l3.8.8q1.9.3 3.8.2t3.8-.6 5.2-2.3m-76 8-3 17-2 10v11q0 6 1 12 0 5 2 16m26-62q1 10 1 16 0 5-1 10v21l3 15"/></svg>